<?xml version="1.0" encoding="UTF-8" standalone="no"?>
<!DOCTYPE svg PUBLIC "-//W3C//DTD SVG 1.1//EN" "http://www.w3.org/Graphics/SVG/1.1/DTD/svg11.dtd">
<svg width="100%" height="100%" viewBox="0 0 800 800" version="1.1" xmlns="http://www.w3.org/2000/svg" xmlns:xlink="http://www.w3.org/1999/xlink" xml:space="preserve" xmlns:serif="http://www.serif.com/" style="fill-rule:evenodd;clip-rule:evenodd;stroke-linejoin:round;stroke-miterlimit:2;">
    <path d="M800,328.5L800,719.765C800,727.49 793.729,733.761 786.004,733.761C674.37,733.761 624.045,693.984 571,575L246.5,575C110.453,575 0,464.547 0,328.5C0,323.62 0.142,318.772 0.423,313.961C7.958,184.67 115.333,82 246.5,82L284.954,82C315.562,71.321 355.865,64.832 400,64.832C444.135,64.832 484.438,71.321 515.046,82L553.5,82C689.547,82 800,192.453 800,328.5ZM536.648,300.111C528.516,310.595 523.674,323.755 523.674,338.037C523.674,372.235 551.438,400 585.636,400C600.002,400 613.233,395.1 623.747,386.882C638.261,375.538 647.599,357.869 647.599,338.037C647.599,303.839 619.834,276.075 585.636,276.075C565.72,276.075 547.986,285.491 536.648,300.111ZM214.364,276.075C180.166,276.075 152.401,303.839 152.401,338.037C152.401,372.235 180.166,400 214.364,400C248.562,400 276.326,372.235 276.326,338.037C276.326,303.839 248.562,276.075 214.364,276.075ZM400,276.075C365.802,276.075 338.037,303.839 338.037,338.037C338.037,372.235 365.802,400 400,400C434.198,400 461.963,372.235 461.963,338.037C461.963,303.839 434.198,276.075 400,276.075Z"/>
</svg>
