<svg xmlns="http://www.w3.org/2000/svg" xmlns:xlink="http://www.w3.org/1999/xlink" width="1080" zoomAndPan="magnify" viewBox="0 0 810 809.999993" height="1080" preserveAspectRatio="xMidYMid meet" version="1.0"><defs><clipPath id="af45dc893f"><path d="M 207.96875 231 L 729.21875 231 L 729.21875 668 L 207.96875 668 Z M 207.96875 231 " clip-rule="nonzero"/></clipPath><clipPath id="5106de0404"><path d="M 208 231 L 729.21875 231 L 729.21875 652 L 208 652 Z M 208 231 " clip-rule="nonzero"/></clipPath><clipPath id="be841de13d"><path d="M 207.96875 277 L 729.21875 277 L 729.21875 668 L 207.96875 668 Z M 207.96875 277 " clip-rule="nonzero"/></clipPath><clipPath id="586bd3924a"><path d="M 89.210938 472.535156 L 235 472.535156 L 235 620.835938 L 89.210938 620.835938 Z M 89.210938 472.535156 " clip-rule="nonzero"/></clipPath><clipPath id="c74fc03bf2"><path d="M 370 179.164062 L 494.441406 179.164062 L 494.441406 263.210938 L 370 263.210938 Z M 370 179.164062 " clip-rule="nonzero"/></clipPath></defs><g clip-path="url(#af45dc893f)"><path fill="#ffcbe2" d="M 729.21875 403.292969 L 729.21875 658.226562 C 729.21875 663.257812 725.132812 667.34375 720.101562 667.34375 C 647.363281 667.34375 614.574219 641.429688 580.011719 563.902344 L 368.578125 563.902344 C 279.9375 563.902344 207.96875 491.933594 207.96875 403.292969 C 207.96875 400.113281 208.0625 396.953125 208.246094 393.820312 C 213.15625 309.578125 283.117188 242.683594 368.578125 242.683594 L 393.632812 242.683594 C 413.578125 235.722656 439.835938 231.496094 468.59375 231.496094 C 497.351562 231.496094 523.609375 235.722656 543.554688 242.683594 L 568.609375 242.683594 C 657.253906 242.683594 729.21875 314.648438 729.21875 403.292969 Z M 557.628906 384.796875 C 552.332031 391.625 549.175781 400.199219 549.175781 409.507812 C 549.175781 431.789062 567.265625 449.878906 589.546875 449.878906 C 598.90625 449.878906 607.527344 446.6875 614.378906 441.332031 C 623.835938 433.941406 629.921875 422.429688 629.921875 409.507812 C 629.921875 387.222656 611.828125 369.132812 589.546875 369.132812 C 576.570312 369.132812 565.015625 375.269531 557.628906 384.796875 Z M 468.59375 369.132812 C 446.3125 369.132812 428.222656 387.222656 428.222656 409.507812 C 428.222656 431.789062 446.3125 449.878906 468.59375 449.878906 C 490.875 449.878906 508.96875 431.789062 508.96875 409.507812 C 508.96875 387.222656 490.875 369.132812 468.59375 369.132812 Z M 347.640625 369.132812 C 325.359375 369.132812 307.269531 387.222656 307.269531 409.507812 C 307.269531 431.789062 325.359375 449.878906 347.640625 449.878906 C 369.921875 449.878906 388.011719 431.789062 388.011719 409.507812 C 388.011719 387.222656 369.921875 369.132812 347.640625 369.132812 Z M 347.640625 369.132812 " fill-opacity="1" fill-rule="evenodd"/></g><g clip-path="url(#5106de0404)"><path fill="#ffcbe2" d="M 543.554688 242.683594 L 568.609375 242.683594 C 657.253906 242.683594 729.21875 314.648438 729.21875 403.292969 L 729.21875 651.90625 C 711.691406 594.183594 678.046875 515.015625 614.378906 441.332031 C 623.835938 433.941406 629.921875 422.429688 629.921875 409.507812 C 629.921875 387.222656 611.828125 369.132812 589.546875 369.132812 C 576.570312 369.132812 565.015625 375.269531 557.628906 384.796875 C 530.359375 361.421875 499.214844 339.496094 463.65625 320.066406 C 436.679688 305.324219 407.164062 292.019531 374.867188 280.609375 C 368.699219 278.429688 362.324219 277.417969 355.773438 277.46875 C 311.242188 277.816406 258.714844 327.386719 208.246094 393.820312 C 213.15625 309.578125 283.117188 242.683594 368.578125 242.683594 L 393.632812 242.683594 C 413.578125 235.722656 439.835938 231.496094 468.59375 231.496094 C 497.351562 231.496094 523.609375 235.722656 543.554688 242.683594 Z M 543.554688 242.683594 " fill-opacity="1" fill-rule="evenodd"/></g><g clip-path="url(#be841de13d)"><path fill="#ffa0ca" d="M 211.476562 436.792969 C 209.179688 425.988281 207.96875 414.78125 207.96875 403.292969 C 207.96875 400.113281 208.0625 396.953125 208.246094 393.820312 C 258.714844 327.386719 311.242188 277.816406 355.773438 277.46875 C 362.324219 277.417969 368.699219 278.429688 374.867188 280.609375 C 407.164062 292.019531 436.679688 305.324219 463.65625 320.066406 C 499.214844 339.496094 530.359375 361.421875 557.628906 384.796875 C 552.332031 391.625 549.175781 400.199219 549.175781 409.507812 C 549.175781 431.789062 567.265625 449.878906 589.546875 449.878906 C 598.90625 449.878906 607.527344 446.6875 614.378906 441.332031 C 678.046875 515.015625 711.691406 594.183594 729.21875 651.90625 L 729.21875 658.226562 C 729.21875 663.257812 725.132812 667.34375 720.101562 667.34375 C 647.390625 667.34375 614.597656 641.445312 580.046875 563.988281 L 581.316406 563.746094 C 581.316406 563.746094 571.550781 504.207031 494.429688 440.523438 C 503.3125 433.113281 508.96875 421.964844 508.96875 409.507812 C 508.96875 387.222656 490.875 369.132812 468.59375 369.132812 C 450.734375 369.132812 435.570312 380.753906 430.253906 396.839844 C 402.253906 381.019531 369.125 365.742188 329.941406 351.898438 C 295.792969 339.832031 252.292969 381.042969 211.476562 436.792969 Z M 211.476562 436.792969 " fill-opacity="1" fill-rule="evenodd"/></g><path fill="#ff54a0" d="M 494.429688 440.523438 C 571.550781 504.207031 581.316406 563.746094 581.316406 563.746094 L 580.050781 563.988281 L 580.011719 563.902344 L 368.582031 563.902344 C 291.425781 563.902344 226.902344 509.378906 211.476562 436.792969 C 252.292969 381.042969 295.792969 339.832031 329.941406 351.898438 C 369.125 365.742188 402.253906 381.019531 430.253906 396.839844 C 428.9375 400.824219 428.222656 405.082031 428.222656 409.507812 C 428.222656 431.789062 446.3125 449.878906 468.59375 449.878906 C 478.417969 449.878906 487.425781 446.363281 494.429688 440.523438 Z M 347.640625 369.132812 C 325.359375 369.132812 307.269531 387.226562 307.269531 409.507812 C 307.269531 431.789062 325.359375 449.878906 347.640625 449.878906 C 369.921875 449.878906 388.011719 431.789062 388.011719 409.507812 C 388.011719 387.226562 369.921875 369.132812 347.640625 369.132812 Z M 347.640625 369.132812 " fill-opacity="1" fill-rule="evenodd"/><path fill="#f8f8f8" d="M 92.226562 569.652344 C 90.273438 557.070312 91.433594 553.539062 98.09375 547.480469 C 95.164062 547.351562 97.011719 547.140625 95.699219 546 C 92.851562 543.519531 88.691406 533.730469 92.164062 524.574219 C 93.308594 526.234375 95.4375 527.363281 98.222656 527.457031 C 102.972656 527.605469 104.878906 525.40625 105.949219 520.789062 C 106.714844 517.488281 105.429688 517.785156 110.058594 515.078125 C 103.558594 515.066406 104.925781 514.472656 102.265625 515.851562 C 107.28125 505.328125 115.894531 499.636719 124.722656 499.480469 L 127.621094 499.691406 C 121.058594 496.160156 119.21875 495.207031 114.175781 495.304688 C 121.8125 486.417969 134.367188 485.667969 144.570312 488.859375 C 143.523438 487.886719 143.183594 487.066406 142.128906 486.539062 C 146.214844 479.101562 154.429688 476.023438 161.484375 476.226562 C 162.1875 476.246094 161.351562 476.910156 161.128906 477.578125 C 159.234375 483.269531 166.871094 489.125 173.910156 483.859375 C 176.375 482.019531 178.621094 479.703125 178.273438 476.25 L 178.207031 475.53125 C 184.6875 478.375 188.214844 483.011719 189.730469 489.433594 C 198.597656 487.773438 206.203125 490.9375 211.105469 496.558594 L 212.113281 497.714844 C 208.390625 496.507812 207.589844 496.339844 203.230469 497.871094 C 208.375 506.207031 210.175781 508.753906 224.308594 509.539062 C 224.859375 509.570312 224.773438 509.464844 224.707031 510.019531 C 224.285156 513.605469 222.683594 514.78125 219.457031 517.667969 C 223.398438 519.695312 232.617188 531.878906 232.742188 545.121094 C 229.285156 542.390625 227.640625 542.398438 223.035156 542.652344 L 224.558594 542.984375 C 230.117188 549.085938 231.824219 560.15625 228.257812 569.898438 C 226.050781 566.96875 223.027344 565.359375 219.191406 564.96875 C 218.335938 564.882812 219.414062 564.023438 219.894531 563.289062 C 220.136719 562.917969 220.390625 562.558594 220.707031 562.15625 C 213.890625 567.878906 215.65625 576.652344 220.472656 584.03125 C 218.136719 584.78125 216.980469 584.128906 210.683594 581.910156 C 212.28125 589.660156 210.109375 592.546875 205.566406 597.761719 C 205.664062 596.652344 205.683594 594.289062 203.035156 593.09375 C 199.132812 591.320312 194.410156 597.21875 194.628906 601.695312 C 194.746094 604.191406 196.359375 605.371094 197.4375 606.304688 C 196.335938 606.273438 195.371094 606.417969 194.460938 606.554688 C 192.46875 606.863281 190.742188 607.167969 188.425781 605.6875 C 186.121094 613.460938 179.417969 617.9375 170.324219 619.59375 C 172.320312 616.78125 173.605469 615.558594 173.191406 608.472656 C 169.21875 609.230469 160.621094 611.105469 160.445312 616.117188 L 160.429688 616.648438 C 154.660156 615.109375 150.597656 612.722656 149.503906 606.824219 C 147.996094 608.289062 145.378906 611.589844 139.460938 610.902344 C 135.835938 610.46875 131.339844 608.152344 129.414062 605.117188 C 132.714844 604.222656 134.496094 602.933594 134.332031 599.570312 C 129.21875 596.132812 125.207031 595.515625 120.011719 598.089844 C 119.097656 598.550781 117.550781 599.226562 117.714844 598.203125 C 119.183594 589.417969 118.085938 582.507812 110.035156 579.082031 C 107.234375 583.769531 107.308594 584 107.25 586.539062 C 102.933594 583.132812 97.800781 580.171875 97.320312 574.714844 C 97.027344 571.621094 96.609375 568.628906 97.933594 565.769531 C 93.371094 567.316406 94.144531 567.640625 92.226562 569.652344 " fill-opacity="1" fill-rule="nonzero"/><path fill="#ffffff" d="M 219.449219 563.109375 C 221.277344 561.902344 225.070312 562.484375 226.988281 563.488281 C 227.886719 557.152344 225.480469 549.859375 221.597656 545.105469 C 219.597656 542.644531 217.4375 538.066406 217.4375 538.066406 C 225.332031 537.632812 225.660156 537.484375 228.320312 538.054688 C 224.902344 522.203125 213.074219 518.273438 213.074219 518.273438 C 215.601562 516.019531 215.582031 516.375 213.71875 516.71875 C 212.839844 516.886719 211.550781 517.054688 209.925781 516.949219 L 203.714844 513.925781 L 214.007812 513.714844 C 205.28125 511.035156 199.65625 506.445312 193.265625 496.082031 C 191.578125 496.148438 191.105469 496.289062 183.820312 497.660156 C 182.113281 490.425781 181.964844 489.328125 180.964844 487.40625 C 172.4375 497.820312 160.8125 492.988281 156.25 483.28125 C 153.828125 484.460938 146.765625 487.03125 145.28125 489.730469 C 144.234375 488.757812 143.25 488.226562 142.191406 487.699219 C 146.285156 480.253906 153.210938 476.667969 160.265625 476.863281 C 160.378906 476.863281 160.472656 476.863281 160.546875 476.863281 C 160.933594 476.863281 160.84375 476.859375 160.65625 477.421875 C 158.769531 483.121094 166.148438 490.214844 173.191406 484.941406 C 175.65625 483.101562 178.148438 479.546875 177.808594 476.101562 L 177.734375 475.378906 C 184.214844 478.226562 187.746094 482.859375 189.261719 489.285156 C 198.132812 487.625 205.734375 490.789062 210.636719 496.410156 L 211.652344 497.566406 C 207.917969 496.351562 207.121094 496.191406 202.761719 497.722656 C 207.90625 506.058594 209.714844 508.597656 223.839844 509.390625 C 224.394531 509.421875 224.304688 509.3125 224.242188 509.871094 C 223.820312 513.460938 222.21875 514.632812 218.984375 517.519531 C 222.929688 519.546875 232.292969 530.675781 232.417969 543.921875 C 228.964844 541.195312 227.1875 540.910156 222.578125 541.164062 L 224.09375 542.832031 C 229.644531 548.9375 232.085938 558.539062 228.519531 568.289062 C 226.308594 565.359375 223.578125 564.1875 219.742188 563.796875 C 218.875 563.707031 218.941406 563.878906 219.449219 563.109375 " fill-opacity="1" fill-rule="nonzero"/><path fill="#ffffff" d="M 100.035156 565.03125 C 95.480469 566.578125 95.269531 566.722656 93.351562 568.734375 C 91.402344 556.15625 93.644531 553.121094 100.304688 547.066406 C 97.367188 546.929688 96.546875 546.992188 95.226562 545.851562 C 92.378906 543.371094 89.171875 535.234375 92.644531 526.085938 C 93.796875 527.746094 95.042969 528.996094 97.820312 529.085938 C 102.570312 529.234375 104.878906 525.40625 105.949219 520.789062 C 106.714844 517.488281 107.144531 517.632812 111.765625 514.925781 C 105.269531 514.910156 105.664062 514.867188 103.003906 516.25 C 108.015625 505.71875 116.996094 500.527344 125.824219 500.378906 L 129.753906 500.3125 C 123.195312 496.785156 120.09375 496.054688 115.046875 496.15625 C 124.667969 484.953125 141.917969 487.519531 146.691406 490.652344 C 144.183594 489.875 135.488281 490.34375 128.003906 493.195312 C 134.988281 494.222656 142.425781 501.667969 142.425781 501.667969 C 131.160156 500.886719 119.046875 504.007812 113.777344 510.011719 C 113.777344 510.011719 116.65625 508.976562 127.8125 513.90625 C 111.53125 520.457031 112.945312 522.59375 112.945312 522.59375 C 111.109375 530.296875 104.171875 538.203125 94.523438 533.136719 C 95.238281 537.980469 99.769531 541.183594 104.492188 540.402344 C 109.0625 539.640625 113.839844 538.839844 113.839844 538.839844 C 101.261719 549.921875 98.125 556.308594 96.996094 559.808594 C 96.402344 560.8125 96.070312 561.835938 96.082031 562.851562 C 97.207031 562.421875 97.742188 562.25 106.40625 559.3125 C 101.929688 568.964844 101.175781 569.992188 101.441406 572.769531 C 101.652344 575.207031 102.847656 577.667969 104.996094 580.121094 C 105.664062 578.863281 106.503906 577.476562 108.183594 574.675781 L 110.882812 575.820312 C 116.503906 578.214844 122.699219 583.15625 122.675781 593.328125 C 129.167969 592.003906 134.144531 594.035156 139.25 597.472656 C 139.375 599.917969 139.796875 603.480469 136.402344 606.105469 C 141.949219 610.636719 148.089844 603.121094 153.128906 598.222656 C 154.421875 605.160156 154.78125 609.621094 157.925781 611.921875 C 161.554688 606.6875 171.335938 605.222656 177.277344 604.085938 C 177.660156 610.621094 177.734375 611.695312 177.753906 612.96875 C 184.066406 609.75 185.199219 603.839844 186.804688 598.417969 L 190.789062 600.976562 C 191.15625 593.859375 201.191406 583.074219 207.714844 588.761719 C 208.402344 585.558594 207.464844 582.101562 206.105469 575.46875 C 212.515625 577.734375 213.113281 577.945312 214.164062 578.304688 C 212.945312 575.382812 212.691406 574.96875 212.460938 573.832031 C 210.820312 565.898438 215.933594 557.851562 223.023438 559.574219 C 220.167969 562.0625 219.128906 563.421875 220.238281 562.007812 C 213.421875 567.730469 215.402344 575.066406 220.210938 582.449219 C 217.882812 583.199219 216.898438 582.851562 210.605469 580.636719 C 212.203125 588.390625 211.207031 591.898438 206.660156 597.113281 C 206.761719 595.996094 207.355469 592.007812 204.707031 590.808594 C 200.804688 589.035156 193.941406 597.0625 194.15625 601.546875 C 194.273438 604.042969 195.898438 605.222656 196.96875 606.15625 C 193.46875 606.058594 192.128906 605.835938 188.761719 603.679688 C 186.457031 611.453125 181.113281 616.722656 172.023438 618.378906 C 174.015625 615.566406 173.75 615.292969 173.335938 608.214844 C 169.367188 608.960938 160.15625 610.953125 159.976562 615.96875 L 159.957031 616.5 C 154.1875 614.960938 152.066406 610.921875 150.96875 605.027344 C 149.464844 606.484375 144.910156 611.441406 138.996094 610.746094 C 135.363281 610.320312 132.96875 607.929688 131.050781 604.894531 C 134.34375 604 136.136719 602.6875 135.96875 599.332031 C 130.859375 595.886719 124.734375 595.367188 119.542969 597.941406 C 118.625 598.394531 118.761719 598.511719 118.933594 597.492188 C 120.394531 588.714844 117.625 582.351562 109.5625 578.933594 C 106.765625 583.613281 106.847656 583.84375 106.777344 586.382812 C 102.464844 582.976562 98.570312 578.535156 98.082031 573.078125 C 97.789062 569.988281 98.710938 567.894531 100.035156 565.03125 " fill-opacity="1" fill-rule="nonzero"/><path fill="#dbdbdb" d="M 177.753906 612.96875 C 177.734375 611.707031 177.667969 610.640625 177.289062 604.242188 C 177.285156 604.191406 177.285156 604.144531 177.277344 604.085938 C 171.335938 605.222656 161.554688 606.6875 157.925781 611.921875 C 154.78125 609.621094 154.421875 605.160156 153.128906 598.222656 C 153.019531 598.328125 152.914062 598.4375 152.800781 598.542969 C 148.925781 602.351562 144.4375 607.496094 140.082031 607.5 C 140.082031 607.5 140.074219 607.5 140.074219 607.5 C 138.855469 607.5 137.640625 607.097656 136.460938 606.152344 C 136.441406 606.132812 136.421875 606.121094 136.402344 606.105469 C 138.917969 604.160156 139.339844 601.707031 139.339844 599.570312 C 139.339844 598.824219 139.28125 598.109375 139.25 597.472656 C 139.246094 597.472656 139.238281 597.464844 139.226562 597.460938 C 139.21875 597.453125 139.207031 597.445312 139.203125 597.441406 C 139.152344 597.402344 139.097656 597.371094 139.046875 597.335938 C 139.035156 597.328125 139.023438 597.316406 139.011719 597.3125 C 138.996094 597.304688 138.992188 597.296875 138.980469 597.292969 C 135.042969 594.679688 131.167969 592.925781 126.59375 592.917969 C 126.59375 592.917969 126.59375 592.917969 126.585938 592.917969 C 125.378906 592.917969 124.128906 593.042969 122.816406 593.304688 C 122.765625 593.308594 122.722656 593.320312 122.675781 593.328125 C 122.699219 583.292969 116.667969 578.347656 111.117188 575.921875 C 111.035156 575.890625 110.960938 575.851562 110.882812 575.820312 L 108.183594 574.675781 C 106.503906 577.476562 105.664062 578.863281 104.996094 580.121094 C 102.847656 577.667969 101.652344 575.207031 101.441406 572.769531 C 101.410156 572.453125 101.394531 572.160156 101.394531 571.882812 C 101.394531 569.652344 102.433594 567.878906 106.40625 559.3125 C 97.742188 562.25 97.207031 562.421875 96.082031 562.851562 C 96.082031 562.84375 96.082031 562.839844 96.082031 562.832031 C 96.082031 562.832031 96.082031 562.824219 96.082031 562.820312 C 96.082031 562.777344 96.082031 562.738281 96.085938 562.695312 C 96.085938 562.691406 96.085938 562.683594 96.085938 562.675781 C 96.085938 562.671875 96.085938 562.671875 96.085938 562.664062 C 96.085938 562.664062 96.085938 562.660156 96.085938 562.660156 C 96.113281 561.703125 96.441406 560.746094 96.996094 559.808594 C 97.003906 559.804688 97.003906 559.796875 97.011719 559.785156 C 99.515625 555.628906 106.746094 552.003906 113.890625 552.003906 C 115.003906 552.003906 116.117188 552.097656 117.207031 552.28125 C 110.808594 556.019531 107.085938 563.886719 108.265625 571.207031 C 109.488281 570.332031 111.199219 569.765625 113.085938 569.765625 C 117.683594 569.765625 123.390625 573.113281 126.042969 583.539062 C 128.195312 580.828125 131.65625 579.441406 135.105469 579.441406 C 138.199219 579.441406 141.289062 580.554688 143.417969 582.828125 C 147.917969 587.621094 147 596.375 141.605469 600.136719 C 151.097656 597.925781 159.535156 591.539062 164.242188 582.988281 C 165.125 588.0625 164.304688 593.414062 161.945312 597.984375 C 173.148438 594.679688 181.679688 583.792969 182.222656 572.117188 C 184.042969 578.554688 186.160156 584.902344 188.554688 591.148438 C 186.914062 580.207031 190.351562 568.617188 197.679688 560.335938 C 196.152344 567.21875 198.429688 574.820312 203.484375 579.726562 C 203.945312 575.847656 203.070312 571.8125 201.054688 568.476562 C 204.539062 568.671875 207.925781 570.117188 210.078125 571.945312 C 207.039062 563.761719 210.296875 554.171875 213.285156 547.742188 C 214.90625 549.265625 216.527344 550.789062 218.144531 552.308594 C 218.671875 544.632812 215.023438 536.789062 208.816406 532.242188 C 210.703125 531.65625 212.679688 531.363281 214.660156 531.363281 C 217.585938 531.363281 220.519531 532.003906 223.164062 533.265625 C 220.621094 526.605469 215.910156 520.800781 209.925781 516.949219 C 209.9375 516.949219 209.949219 516.949219 209.960938 516.949219 C 210.300781 516.96875 210.628906 516.980469 210.945312 516.980469 C 210.953125 516.980469 210.953125 516.980469 210.953125 516.980469 C 212.035156 516.980469 212.917969 516.867188 213.59375 516.746094 C 213.601562 516.746094 213.613281 516.746094 213.625 516.738281 C 213.65625 516.734375 213.6875 516.726562 213.71875 516.71875 C 214.398438 516.597656 214.839844 516.464844 214.988281 516.464844 C 215.242188 516.464844 214.707031 516.824219 213.230469 518.140625 C 213.222656 518.144531 213.222656 518.144531 213.222656 518.144531 C 213.210938 518.152344 213.203125 518.15625 213.199219 518.171875 C 213.1875 518.175781 213.179688 518.183594 213.171875 518.1875 C 213.171875 518.1875 213.167969 518.195312 213.167969 518.195312 C 213.136719 518.21875 213.105469 518.246094 213.074219 518.273438 C 213.074219 518.273438 224.902344 522.203125 228.320312 538.054688 C 228.316406 538.054688 228.308594 538.054688 228.300781 538.054688 C 228.289062 538.046875 228.277344 538.046875 228.265625 538.046875 C 227.070312 537.789062 226.347656 537.683594 225.164062 537.683594 C 225.066406 537.683594 224.964844 537.683594 224.859375 537.683594 C 224.699219 537.6875 224.527344 537.6875 224.347656 537.695312 C 224.335938 537.695312 224.328125 537.695312 224.320312 537.695312 C 223.785156 537.714844 223.152344 537.746094 222.382812 537.789062 C 222.378906 537.789062 222.371094 537.789062 222.367188 537.789062 C 222.277344 537.792969 222.1875 537.792969 222.085938 537.800781 C 222.085938 537.800781 222.082031 537.800781 222.074219 537.800781 C 222.074219 537.800781 222.074219 537.800781 222.070312 537.800781 C 222.007812 537.804688 221.945312 537.8125 221.875 537.8125 C 221.875 537.8125 221.871094 537.8125 221.863281 537.8125 C 221.863281 537.8125 221.863281 537.8125 221.863281 537.820312 C 221.246094 537.851562 220.546875 537.894531 219.746094 537.9375 C 219.710938 537.9375 219.679688 537.941406 219.640625 537.941406 C 219.625 537.941406 219.605469 537.949219 219.585938 537.949219 C 219.5625 537.949219 219.542969 537.949219 219.523438 537.949219 C 219.277344 537.960938 219.023438 537.980469 218.761719 537.992188 C 218.75 537.992188 218.746094 537.992188 218.730469 537.992188 C 218.707031 538 218.675781 538 218.652344 538 C 218.652344 538 218.652344 538 218.644531 538 C 218.578125 538.003906 218.507812 538.003906 218.441406 538.011719 C 218.378906 538.015625 218.324219 538.015625 218.269531 538.023438 C 218.253906 538.023438 218.242188 538.023438 218.238281 538.023438 C 218.03125 538.035156 217.828125 538.046875 217.617188 538.054688 C 217.613281 538.054688 217.613281 538.054688 217.605469 538.058594 C 217.550781 538.058594 217.496094 538.058594 217.4375 538.066406 C 217.4375 538.066406 219.597656 542.644531 221.597656 545.105469 C 224.929688 549.1875 227.167969 555.125 227.175781 560.730469 C 227.175781 561.667969 227.113281 562.589844 226.988281 563.488281 C 225.832031 562.882812 223.988281 562.429688 222.308594 562.429688 C 221.703125 562.429688 221.117188 562.484375 220.589844 562.621094 C 221.128906 561.964844 221.839844 561.195312 222.917969 560.132812 C 222.371094 560.433594 221.859375 560.75 221.375 561.074219 C 222.242188 560.261719 222.972656 559.625 223.023438 559.582031 C 223.023438 559.574219 223.023438 559.574219 223.023438 559.574219 C 222.371094 559.414062 221.726562 559.339844 221.109375 559.339844 C 221.109375 559.339844 221.109375 559.339844 221.101562 559.339844 C 215.074219 559.34375 211.019531 566.550781 212.4375 573.714844 C 212.4375 573.726562 212.441406 573.746094 212.441406 573.765625 C 212.449219 573.777344 212.449219 573.789062 212.457031 573.804688 C 212.457031 573.816406 212.457031 573.820312 212.460938 573.832031 C 212.691406 574.96875 212.945312 575.382812 214.164062 578.304688 C 213.113281 577.945312 212.515625 577.734375 206.105469 575.46875 C 207.152344 580.5625 207.941406 583.78125 207.941406 586.453125 C 207.941406 587.257812 207.875 588.019531 207.714844 588.761719 C 207.703125 588.75 207.6875 588.738281 207.675781 588.730469 C 207.671875 588.726562 207.664062 588.71875 207.660156 588.714844 C 207.652344 588.714844 207.644531 588.707031 207.640625 588.699219 C 207.640625 588.699219 207.640625 588.695312 207.640625 588.695312 C 206.375 587.628906 204.992188 587.164062 203.574219 587.164062 C 203.566406 587.164062 203.558594 587.164062 203.554688 587.164062 C 197.648438 587.175781 191.167969 595.167969 190.796875 600.871094 C 190.796875 600.886719 190.796875 600.902344 190.796875 600.917969 C 190.796875 600.933594 190.796875 600.960938 190.789062 600.976562 L 186.804688 598.417969 C 185.199219 603.839844 184.066406 609.75 177.753906 612.96875 " fill-opacity="1" fill-rule="nonzero"/><path fill="#e1e1e1" d="M 226.988281 563.488281 C 227.113281 562.589844 227.175781 561.667969 227.175781 560.730469 C 227.175781 561.667969 227.113281 562.589844 226.988281 563.488281 M 217.605469 538.058594 C 217.613281 538.054688 217.613281 538.054688 217.617188 538.054688 C 217.613281 538.054688 217.613281 538.054688 217.605469 538.058594 M 228.320312 538.054688 C 228.316406 538.054688 228.308594 538.054688 228.300781 538.054688 C 228.308594 538.054688 228.316406 538.054688 228.320312 538.054688 M 228.265625 538.046875 C 227.070312 537.789062 226.347656 537.683594 225.164062 537.683594 C 226.347656 537.683594 227.070312 537.789062 228.265625 538.046875 M 218.238281 538.023438 C 218.242188 538.023438 218.253906 538.023438 218.269531 538.023438 C 218.253906 538.023438 218.242188 538.023438 218.238281 538.023438 M 218.441406 538.011719 C 218.507812 538.003906 218.578125 538.003906 218.644531 538 C 218.578125 538.003906 218.507812 538.003906 218.441406 538.011719 M 218.652344 538 C 218.675781 538 218.707031 538 218.730469 537.992188 C 218.707031 538 218.675781 538 218.652344 538 M 218.761719 537.992188 C 219.023438 537.980469 219.277344 537.960938 219.523438 537.949219 C 219.277344 537.960938 219.023438 537.980469 218.761719 537.992188 M 219.585938 537.949219 C 219.605469 537.949219 219.625 537.941406 219.640625 537.941406 C 219.625 537.941406 219.605469 537.949219 219.585938 537.949219 M 219.746094 537.9375 C 220.546875 537.894531 221.246094 537.851562 221.863281 537.820312 C 221.246094 537.851562 220.546875 537.894531 219.746094 537.9375 M 221.863281 537.820312 C 221.863281 537.8125 221.863281 537.8125 221.863281 537.8125 C 221.863281 537.8125 221.863281 537.8125 221.863281 537.820312 M 221.875 537.8125 C 221.945312 537.8125 222.007812 537.804688 222.070312 537.800781 C 222.007812 537.804688 221.945312 537.8125 221.875 537.8125 M 222.074219 537.800781 C 222.082031 537.800781 222.085938 537.800781 222.085938 537.800781 C 222.085938 537.800781 222.082031 537.800781 222.074219 537.800781 M 222.367188 537.789062 C 222.371094 537.789062 222.378906 537.789062 222.382812 537.789062 C 222.378906 537.789062 222.371094 537.789062 222.367188 537.789062 M 224.320312 537.695312 C 224.328125 537.695312 224.335938 537.695312 224.347656 537.695312 C 224.335938 537.695312 224.328125 537.695312 224.320312 537.695312 M 224.859375 537.683594 C 224.964844 537.683594 225.066406 537.683594 225.164062 537.683594 C 225.066406 537.683594 224.964844 537.683594 224.859375 537.683594 M 213.167969 518.195312 C 213.167969 518.195312 213.171875 518.1875 213.171875 518.1875 C 213.171875 518.1875 213.167969 518.195312 213.167969 518.195312 M 213.199219 518.171875 C 213.203125 518.15625 213.210938 518.152344 213.222656 518.144531 C 213.210938 518.152344 213.203125 518.15625 213.199219 518.171875 M 213.230469 518.140625 C 214.707031 516.824219 215.242188 516.464844 214.988281 516.464844 C 215.246094 516.464844 214.707031 516.824219 213.230469 518.140625 M 210.945312 516.980469 C 210.953125 516.980469 210.953125 516.980469 210.953125 516.980469 C 210.953125 516.980469 210.953125 516.980469 210.945312 516.980469 M 210.945312 516.980469 C 210.628906 516.980469 210.300781 516.96875 209.960938 516.949219 C 210.300781 516.96875 210.628906 516.980469 210.945312 516.980469 M 213.59375 516.746094 C 213.601562 516.746094 213.613281 516.746094 213.625 516.738281 C 213.613281 516.746094 213.601562 516.746094 213.59375 516.746094 M 213.71875 516.71875 C 214.398438 516.597656 214.839844 516.464844 214.988281 516.464844 C 214.839844 516.464844 214.398438 516.597656 213.71875 516.71875 " fill-opacity="1" fill-rule="nonzero"/><path fill="#e1e1e1" d="M 177.753906 612.96875 C 184.066406 609.75 185.199219 603.839844 186.804688 598.417969 L 190.789062 600.976562 L 186.804688 598.417969 C 185.199219 603.839844 184.066406 609.75 177.753906 612.96875 M 157.925781 611.921875 C 154.78125 609.621094 154.421875 605.160156 153.128906 598.222656 C 153.019531 598.328125 152.914062 598.4375 152.800781 598.542969 C 152.914062 598.4375 153.019531 598.328125 153.128906 598.222656 C 154.421875 605.160156 154.78125 609.621094 157.925781 611.921875 C 161.554688 606.6875 171.335938 605.222656 177.277344 604.085938 C 177.285156 604.144531 177.285156 604.191406 177.289062 604.242188 C 177.285156 604.191406 177.285156 604.144531 177.277344 604.085938 C 171.335938 605.222656 161.554688 606.6875 157.925781 611.921875 M 140.074219 607.5 C 140.074219 607.5 140.082031 607.5 140.082031 607.5 C 140.082031 607.5 140.074219 607.5 140.074219 607.5 M 140.074219 607.5 C 138.855469 607.5 137.640625 607.097656 136.460938 606.152344 C 137.640625 607.097656 138.855469 607.5 140.074219 607.5 M 190.796875 600.917969 C 190.796875 600.902344 190.796875 600.886719 190.796875 600.871094 C 190.796875 600.886719 190.796875 600.902344 190.796875 600.917969 M 139.339844 599.570312 C 139.339844 598.824219 139.28125 598.109375 139.25 597.472656 C 139.28125 598.109375 139.339844 598.824219 139.339844 599.570312 M 139.226562 597.460938 C 139.21875 597.453125 139.207031 597.445312 139.203125 597.441406 C 139.207031 597.445312 139.21875 597.453125 139.226562 597.460938 M 139.046875 597.335938 C 139.035156 597.328125 139.023438 597.316406 139.011719 597.3125 C 139.023438 597.316406 139.035156 597.328125 139.046875 597.335938 M 138.980469 597.292969 C 135.042969 594.679688 131.167969 592.925781 126.59375 592.917969 C 131.167969 592.925781 135.042969 594.679688 138.980469 597.292969 M 122.675781 593.328125 C 122.722656 593.320312 122.765625 593.308594 122.816406 593.304688 C 122.765625 593.308594 122.722656 593.320312 122.675781 593.328125 M 207.714844 588.761719 C 207.703125 588.75 207.6875 588.738281 207.675781 588.730469 C 207.6875 588.738281 207.703125 588.75 207.714844 588.761719 C 207.875 588.019531 207.941406 587.257812 207.941406 586.453125 C 207.941406 587.257812 207.875 588.019531 207.714844 588.761719 M 207.660156 588.714844 C 207.652344 588.714844 207.644531 588.707031 207.640625 588.699219 C 207.644531 588.707031 207.652344 588.714844 207.660156 588.714844 M 207.640625 588.695312 C 206.375 587.628906 204.992188 587.164062 203.574219 587.164062 C 204.992188 587.164062 206.375 587.628906 207.640625 588.695312 M 203.554688 587.164062 C 203.558594 587.164062 203.566406 587.164062 203.574219 587.164062 C 203.566406 587.164062 203.558594 587.164062 203.554688 587.164062 M 104.996094 580.121094 C 102.847656 577.667969 101.652344 575.207031 101.441406 572.769531 C 101.410156 572.453125 101.394531 572.160156 101.394531 571.882812 C 101.394531 572.160156 101.410156 572.453125 101.441406 572.769531 C 101.652344 575.207031 102.847656 577.667969 104.996094 580.121094 C 105.664062 578.863281 106.503906 577.476562 108.183594 574.675781 L 110.882812 575.820312 C 110.960938 575.851562 111.035156 575.890625 111.117188 575.921875 C 111.035156 575.890625 110.960938 575.851562 110.882812 575.820312 L 108.183594 574.675781 C 106.503906 577.476562 105.664062 578.863281 104.996094 580.121094 M 214.164062 578.304688 C 213.113281 577.945312 212.515625 577.734375 206.105469 575.46875 C 212.515625 577.734375 213.113281 577.945312 214.164062 578.304688 M 212.460938 573.832031 C 212.457031 573.820312 212.457031 573.816406 212.457031 573.804688 C 212.457031 573.816406 212.457031 573.820312 212.460938 573.832031 M 212.441406 573.765625 C 212.441406 573.746094 212.4375 573.726562 212.4375 573.714844 C 212.4375 573.726562 212.441406 573.746094 212.441406 573.765625 M 96.082031 562.851562 C 96.082031 562.84375 96.082031 562.839844 96.082031 562.832031 C 96.082031 562.839844 96.082031 562.84375 96.082031 562.851562 C 97.207031 562.421875 97.742188 562.25 106.40625 559.3125 C 97.742188 562.25 97.207031 562.421875 96.082031 562.851562 M 96.085938 562.675781 C 96.085938 562.671875 96.085938 562.671875 96.085938 562.664062 C 96.085938 562.671875 96.085938 562.671875 96.085938 562.675781 M 96.085938 562.660156 C 96.113281 561.699219 96.441406 560.726562 97.011719 559.785156 C 97.003906 559.796875 97.003906 559.804688 96.996094 559.808594 C 96.441406 560.746094 96.113281 561.703125 96.085938 562.660156 M 223.023438 559.582031 C 223.023438 559.574219 223.023438 559.574219 223.023438 559.574219 C 223.023438 559.574219 223.023438 559.574219 223.023438 559.582031 M 223.023438 559.574219 C 222.371094 559.414062 221.726562 559.339844 221.109375 559.339844 C 221.726562 559.339844 222.371094 559.414062 223.023438 559.574219 M 221.101562 559.339844 C 221.109375 559.339844 221.109375 559.339844 221.109375 559.339844 C 221.109375 559.339844 221.109375 559.339844 221.101562 559.339844 " fill-opacity="1" fill-rule="nonzero"/><path fill="#ffffff" d="M 127.6875 545.808594 C 124.792969 541.578125 121.707031 546.09375 119.714844 546.28125 C 118.28125 542.179688 120.464844 535.304688 128.097656 533.835938 C 125.878906 528.65625 123.558594 528.578125 118.0625 529.804688 C 120.824219 523.621094 128.96875 515.375 135.257812 514.058594 C 132.332031 512.359375 129.234375 510.945312 126.03125 509.855469 C 134.734375 503.390625 146.179688 502.511719 150.257812 504.917969 C 149.636719 502.003906 147.714844 499.636719 144.796875 497.292969 C 148.863281 496.953125 153.160156 497.363281 155.671875 499.640625 C 153.253906 497.480469 153.042969 493.664062 153.585938 491.441406 C 161.757812 499.550781 169.019531 500.355469 180.09375 497.367188 C 180.117188 500.34375 179.296875 501.882812 178.210938 502.875 C 183.832031 502.238281 193.113281 504.449219 197.753906 510.773438 C 195.152344 510.097656 192.351562 510.359375 189.867188 511.378906 C 196.230469 511.015625 207.304688 517.019531 210.328125 525.628906 C 203.246094 522.011719 205.046875 524.425781 198.800781 524.988281 C 207.644531 527.246094 216.167969 546.167969 204.265625 556.019531 C 202.261719 550.289062 200.621094 546.84375 193.347656 548.15625 C 190.648438 550.617188 187.703125 558.875 186.859375 565.664062 C 184.222656 563.0625 182.527344 562.019531 181.113281 560.070312 C 179.625 564.902344 178.105469 564.996094 167.949219 568.765625 C 169.210938 567.113281 167.621094 566.863281 167.8125 563.707031 C 164.078125 567.632812 156.601562 569.808594 153.023438 570.632812 C 155.867188 563.476562 144.191406 559.066406 140.125 566.128906 C 137.914062 553.269531 131.867188 551.667969 124.128906 558.28125 C 121.5 553.894531 123.101562 549.105469 127.6875 545.808594 " fill-opacity="1" fill-rule="nonzero"/><g clip-path="url(#586bd3924a)"><path fill="#a8a8a8" d="M 206.765625 596.265625 C 207.261719 591.097656 203.21875 587.679688 197.375 593.679688 C 191.8125 599.441406 192.664062 603.699219 195.273438 606.007812 C 191.699219 605.871094 189.789062 604.398438 188.011719 603.257812 C 186.667969 607.816406 185.027344 611.390625 180.410156 614.570312 C 178.199219 616.097656 175.648438 617.152344 173.023438 617.609375 C 174.601562 615.417969 174.28125 613.640625 173.996094 607.722656 C 168.9375 608.628906 159.171875 610.683594 158.9375 615.929688 C 152.015625 614.011719 151.191406 606.492188 150.726562 604.070312 L 148.921875 605.796875 C 143.207031 611.25 135.847656 612.351562 131.199219 604.878906 C 132.820312 604.460938 134.347656 603.671875 135.246094 602.265625 C 136.070312 600.984375 135.953125 599.757812 135.921875 598.867188 C 130.367188 594.964844 123.929688 594.738281 118.90625 597.175781 C 120.59375 587.585938 116.929688 581.328125 110.269531 578.417969 L 109.117188 577.914062 C 106.671875 581.917969 106.109375 582.953125 106.042969 585.019531 C 102.160156 581.90625 98.675781 577.390625 98.277344 572.464844 C 97.996094 569.058594 99.203125 567.007812 100.679688 563.761719 C 96.632812 565.113281 95.207031 565.402344 93.464844 567.199219 C 91.605469 554.542969 95.023438 551.800781 101.363281 546.136719 C 97.492188 545.914062 96.816406 546.0625 95.53125 544.929688 C 92.472656 542.210938 90.078125 533.742188 92.949219 526.367188 C 95.269531 529.796875 101.175781 529.710938 103.6875 526.570312 C 107.816406 521.261719 105.609375 518.664062 108.902344 516.777344 L 113.644531 514.0625 C 107.316406 514.019531 106.085938 513.820312 104.226562 514.761719 C 108.488281 506.027344 117.53125 500.554688 126.265625 500.476562 L 131.804688 500.433594 C 126.730469 497.585938 122.277344 495.230469 116.464844 495.300781 C 124.226562 486.421875 138.460938 487.234375 147.210938 490.523438 C 146.183594 489.128906 144.816406 488.101562 143.332031 487.347656 C 146.753906 481.238281 153.402344 476.996094 160.898438 477.28125 C 158.824219 483.34375 166.585938 490.839844 174.015625 485.394531 C 176.824219 483.332031 179.191406 479.644531 178.886719 476.214844 C 183.957031 478.5 187.925781 483.207031 189.164062 488.652344 L 189.472656 490.023438 L 190.851562 489.78125 C 198.1875 488.472656 205.972656 491.519531 210.785156 497.132812 C 207.398438 496 205.144531 496.992188 202.582031 497.863281 C 208.066406 506.945312 209.800781 509.449219 224.160156 510.382812 C 223.710938 513.964844 222.054688 514.992188 218.480469 518.164062 C 222.019531 519.304688 232.023438 531.421875 232.027344 543.671875 C 228.390625 540.742188 225.109375 541.21875 221.722656 541.332031 L 223.820312 543.679688 C 229.597656 550.144531 231.25 559.933594 228.210938 568.015625 C 226.363281 565.519531 223.039062 564.277344 219.640625 563.898438 C 220.316406 562.894531 221.078125 561.945312 222.917969 560.132812 C 213.441406 565.441406 213.296875 573.445312 219.238281 582.734375 C 217.300781 583.34375 214.679688 582.195312 209.757812 580.425781 C 210.394531 584.03125 212.214844 590.113281 206.765625 596.265625 M 217.613281 586.351562 C 220.09375 586.644531 222.15625 585.609375 223.28125 583.84375 C 223.578125 583.378906 223.503906 582.765625 223.175781 582.320312 C 219.902344 577.816406 215.902344 572.613281 218.132812 566.734375 C 222.070312 566.910156 226.167969 568.320312 226.6875 571.875 L 227.316406 576.1875 L 229.429688 572.378906 C 234.1875 563.816406 233.414062 553.046875 228.628906 545.253906 L 228.867188 545.117188 C 231.582031 546.566406 232.28125 544.144531 234.871094 549.0625 C 235.53125 536.492188 231.125 524.601562 228.667969 522.015625 C 228.011719 521.335938 224.507812 517.804688 223.863281 517.285156 C 227.183594 514.011719 227.167969 510.75 227.242188 507.601562 C 213.574219 506.851562 211.027344 505.835938 207.101562 499.609375 C 208.746094 499.402344 212.871094 498.726562 215.835938 499.382812 C 214.417969 496.761719 211.398438 488.367188 201.617188 486.777344 C 197.972656 486.230469 192.679688 486.566406 191.679688 486.675781 C 189.601562 479.78125 182.308594 474.382812 175.316406 472.628906 C 176.707031 474.375 176.675781 479.714844 172.34375 482.960938 C 170.429688 485.074219 167.179688 484.96875 165.90625 483.246094 C 163.800781 481.367188 162.976562 477.433594 164.761719 475.546875 C 154.941406 474.015625 144.804688 478.34375 140.570312 486.261719 C 131.886719 483.746094 116.105469 486.917969 111.59375 498.96875 C 111.59375 498.96875 116.25 496.886719 119.324219 498.476562 C 115.671875 499.53125 112.242188 501.34375 109.304688 503.710938 C 100.75 510.574219 101.125 513.753906 101.632812 517.753906 C 103.410156 516.621094 104.476562 516.675781 106.175781 516.945312 C 102.742188 519.625 102.859375 528.28125 95.628906 525.363281 C 93.976562 524.691406 93.417969 522.640625 93.136719 521.335938 C 86.269531 532.757812 89.453125 545.121094 94.746094 548.125 C 87.84375 555.707031 89.699219 563.488281 91.554688 574.789062 L 93.835938 571.703125 C 97.003906 567.410156 93.0625 571.722656 97.308594 579.539062 C 100.773438 585.917969 106.425781 589.164062 109.738281 591.308594 C 108.9375 584.445312 108.746094 584.675781 110.375 581.886719 C 118.039062 585.78125 117.578125 593.742188 115.691406 601.640625 C 118.308594 600.019531 121.140625 597.886719 125.960938 598.210938 C 128.363281 598.363281 130.765625 599.125 132.746094 600.394531 C 131.992188 602.246094 127.972656 602.199219 126.351562 602.292969 C 127.769531 605.140625 128.957031 607.824219 131.5625 610.175781 C 136.253906 614.507812 142.910156 614.234375 148.902344 609.84375 C 151.902344 618.234375 157.777344 618.199219 161.363281 618.160156 C 161.96875 618.148438 162.515625 618.144531 162.960938 618.179688 C 159.472656 611.558594 168.226562 612.027344 171.117188 611.386719 C 171.371094 616.402344 171.371094 616.402344 167.949219 620.789062 C 176.714844 621.425781 186.382812 615.90625 189.714844 607.730469 C 191.75 608.652344 197.054688 608.34375 199.910156 608.113281 C 197.953125 603.839844 197.054688 598.972656 200.90625 594.429688 C 204.964844 591.210938 204.933594 598.445312 204.097656 600.582031 C 206.210938 599.121094 209.695312 597.410156 211.507812 595.074219 C 212.308594 593.785156 212.839844 590.652344 213.1875 589.132812 C 214.429688 583.269531 211.867188 585.707031 217.613281 586.351562 " fill-opacity="1" fill-rule="nonzero"/></g><path fill="#b70000" d="M 215.542969 343.375 C 215.804688 331.503906 217.308594 328.648438 216.527344 318.832031 C 216.503906 318.460938 214.945312 302.636719 215.457031 298.691406 C 217.019531 286.835938 229.769531 288.011719 243.171875 289.191406 C 254.183594 290.15625 265.636719 291.128906 271.683594 284.871094 C 284.285156 271.828125 296.492188 250.472656 318.769531 246.988281 C 351.914062 241.796875 326.390625 207.464844 395.132812 224.699219 C 426.546875 210.949219 444.453125 213.710938 460.554688 207.914062 C 454.585938 194.222656 447.0625 156.058594 420.535156 144.710938 C 414.285156 142.039062 407.605469 134.519531 395.453125 127.246094 C 380.082031 118.054688 375.746094 116.054688 369.871094 111.644531 C 353.898438 99.652344 237.722656 109.542969 207.570312 135.628906 C 200.496094 141.75 152.058594 200.832031 146.847656 208.996094 C 80.023438 313.539062 154.695312 468.292969 158.253906 495.46875 C 159.699219 506.5 171.878906 511.304688 171.636719 492.582031 C 171.277344 465.003906 179.324219 455.140625 185.144531 428.050781 C 189.601562 407.292969 203.21875 396.355469 206.296875 374.804688 C 208.476562 359.527344 215.234375 357.597656 215.542969 343.375 " fill-opacity="1" fill-rule="nonzero"/><path fill="#a10000" d="M 170.4375 475.382812 C 168.183594 458.082031 163.460938 413.648438 161.289062 385.898438 C 157.648438 339.234375 135.933594 275.773438 196.144531 186.273438 C 207.832031 168.90625 219.863281 153.085938 239.46875 146.785156 C 254.332031 160.492188 210.925781 168.539062 189.90625 232.003906 C 186.152344 243.320312 185.050781 272 186.363281 295.296875 C 178.460938 301.980469 171.847656 309.546875 168.566406 316.1875 C 170.460938 314.824219 172.417969 314.371094 174.460938 314.371094 C 177.214844 314.371094 180.117188 315.195312 183.238281 315.683594 C 171.023438 327.566406 165.417969 345.875 165.546875 362.921875 C 168.597656 356.222656 176.226562 351.882812 177.910156 351.667969 C 173.6875 365.035156 174.152344 389.492188 181.726562 401.285156 C 181.144531 396.3125 187.910156 382.394531 191.515625 378.921875 C 194.863281 380.621094 197.730469 383.828125 199.667969 387.527344 C 194.601562 401.578125 175.585938 443.054688 170.4375 475.382812 " fill-opacity="1" fill-rule="nonzero"/><path fill="#cb0000" d="M 165.144531 504.589844 C 163.4375 504.589844 161.753906 501.933594 160.996094 497.609375 C 157.058594 475.15625 99.605469 332.890625 131.097656 249.042969 C 144.234375 214.082031 151.445312 204.277344 178.03125 172.820312 C 181.566406 168.640625 184.644531 164.917969 187.355469 161.597656 C 187.527344 161.398438 187.703125 161.199219 187.867188 160.996094 C 199.109375 147.90625 206.382812 138.6875 216.082031 131.8125 C 220.222656 129.558594 225.386719 127.476562 232.796875 124.757812 C 259.195312 115.085938 297.871094 108.550781 329.378906 108.550781 C 347.640625 108.550781 363.488281 110.746094 373.144531 115.800781 C 375.855469 117.21875 384.613281 122.75 393.039062 128.386719 C 402.4375 136.847656 410.050781 146.785156 412.15625 155.507812 C 415.089844 167.660156 409.777344 176.035156 399.546875 182.144531 C 391.722656 183.828125 384.449219 186.523438 378.957031 190.351562 C 376.734375 190.964844 374.445312 191.550781 372.09375 192.109375 C 371.320312 192.078125 370.542969 192.066406 369.769531 192.066406 C 361.378906 192.066406 352.996094 193.789062 344.601562 195.515625 C 336.207031 197.238281 327.800781 198.960938 319.363281 198.960938 C 312.480469 198.960938 305.578125 197.816406 298.640625 194.582031 C 298.535156 196.800781 297.691406 200.972656 298.101562 205.027344 C 286.46875 207.433594 276.046875 210.351562 268.125 214.371094 C 264.464844 216.226562 261.042969 217.035156 257.953125 217.035156 C 248.035156 217.035156 241.605469 208.660156 242.117188 199.566406 C 242.980469 184.492188 251.175781 161.125 252.722656 154.980469 C 254.035156 149.777344 251.632812 143.929688 243.96875 143.929688 C 235.792969 143.929688 221.628906 150.589844 199.597656 171.773438 C 187.421875 183.480469 159.160156 233.632812 154.375 247.273438 C 140.65625 286.390625 143.511719 289.734375 142.804688 317.535156 C 141.671875 362.105469 161.886719 440.007812 167.925781 481.425781 C 168.699219 486.703125 169.050781 494.613281 168.5 500.324219 C 167.570312 503.285156 166.351562 504.589844 165.144531 504.589844 " fill-opacity="1" fill-rule="nonzero"/><path fill="#780000" d="M 462.882812 201.171875 C 461.292969 192.71875 438.828125 152.96875 426.496094 144.648438 C 403.277344 128.996094 394.046875 120.601562 376.667969 110.652344 C 363.242188 102.957031 343.679688 104.71875 327.890625 105.015625 C 194.039062 107.546875 194.273438 144.890625 170.246094 171.835938 C 85.148438 267.253906 116.515625 340.324219 126.816406 398.542969 C 130.863281 421.40625 156.132812 503.53125 156.375 503.910156 C 160.0625 509.765625 163.050781 509.660156 163.894531 509.558594 C 164.199219 509.523438 164.214844 509.484375 163.875 509.738281 C 179.402344 512.421875 175.253906 495.855469 176.304688 484.367188 C 178.847656 456.585938 185.421875 456.839844 189.96875 432.902344 C 194.015625 411.601562 204.6875 401.789062 208.222656 386.203125 C 213.574219 362.613281 220.714844 358.4375 219.445312 358.59375 C 237.03125 276.019531 206.65625 355.203125 200.824219 383.8125 C 199.066406 392.421875 172.988281 445.90625 169.519531 482.515625 C 169.03125 487.691406 169.476562 494.015625 168.746094 499.480469 C 166.542969 507.675781 162.335938 505.25 160.996094 497.609375 C 157.058594 475.15625 99.605469 332.890625 131.097656 249.042969 C 144.234375 214.082031 151.445312 204.277344 178.03125 172.820312 C 208.984375 136.199219 204.648438 135.070312 232.796875 124.757812 C 274.5 109.480469 346.832031 102.023438 373.144531 115.800781 C 377.800781 118.234375 400.300781 132.808594 408.328125 139.207031 C 423.550781 151.34375 427.015625 148.03125 456.644531 199.457031 C 457.601562 201.121094 457.75 200.824219 457.917969 200.523438 C 458.015625 200.34375 458.121094 200.15625 458.417969 200.421875 C 458.984375 200.914062 459.285156 200.90625 459.59375 200.898438 C 459.726562 200.894531 459.855469 200.894531 460.011719 200.925781 C 462.859375 201.585938 463.371094 203.78125 462.882812 201.171875 " fill-opacity="1" fill-rule="nonzero"/><path fill="#780000" d="M 238.929688 146.605469 C 261.058594 154.113281 214.378906 173.71875 194.566406 225.144531 C 184.765625 250.566406 183.28125 300.15625 189.125 321.722656 C 180.148438 329.652344 180.875 308.933594 180.371094 297.347656 C 175 172.703125 258.765625 162.613281 238.929688 146.605469 " fill-opacity="1" fill-rule="nonzero"/><path fill="#f8f8f8" d="M 492.742188 249.503906 C 481.8125 249.898438 471.171875 241.757812 468.683594 231.097656 C 473.246094 231.414062 477.664062 233.421875 480.914062 236.636719 C 481.527344 226.761719 475.839844 216.78125 467.035156 212.285156 C 473.007812 208.078125 478.023438 202.511719 481.578125 196.117188 C 470.539062 204.9375 454.855469 193.449219 444.8125 190.796875 C 440.425781 189.636719 432.8125 190.011719 428.71875 191.699219 C 430.804688 188.269531 433.777344 185.390625 437.269531 183.40625 C 418.191406 178.953125 379.128906 182.9375 370.519531 200.546875 L 395.992188 238.296875 C 403.945312 239.449219 412.042969 240.644531 419.324219 244.0625 C 426.601562 247.484375 433.082031 253.523438 435.039062 261.328125 C 437.8125 255.703125 438.34375 249.007812 436.492188 243.011719 C 450.785156 257.597656 475.511719 260.449219 492.742188 249.503906 " fill-opacity="1" fill-rule="nonzero"/><path fill="#ffffff" d="M 440.511719 194.167969 C 447.941406 195.785156 454.304688 200.554688 461.546875 202.871094 C 456.011719 204.152344 450.632812 206.066406 445.539062 208.570312 C 457.894531 210.476562 470.953125 205.984375 479.863281 197.265625 C 468.960938 203.769531 454.351562 193.3125 444.8125 190.796875 C 440.425781 189.636719 432.8125 190.011719 428.71875 191.699219 C 430.804688 188.269531 433.777344 185.390625 437.269531 183.40625 C 422.351562 179.925781 395.261719 181.636719 380.023438 190.957031 C 381.242188 191.894531 382.472656 192.808594 383.765625 193.644531 C 384.703125 194.253906 385.699219 194.839844 386.804688 194.972656 C 388.507812 195.171875 390.117188 194.246094 391.628906 193.441406 C 397.71875 190.175781 404.511719 188.226562 411.40625 187.753906 C 410.296875 189.21875 409.195312 190.683594 408.085938 192.148438 C 413.496094 191.359375 418.746094 189.488281 423.433594 186.675781 C 421.210938 189.929688 418.980469 193.175781 416.753906 196.425781 C 424.539062 194.445312 432.664062 192.464844 440.511719 194.167969 " fill-opacity="1" fill-rule="nonzero"/><path fill="#dbdbdb" d="M 435.046875 256.199219 C 432.179688 250.089844 426.695312 244.417969 418.023438 240.675781 C 419.472656 239.480469 420.480469 237.78125 420.894531 235.949219 C 421.753906 234.726562 422.535156 233.394531 423.214844 231.933594 C 422.746094 232.175781 422.261719 232.386719 421.773438 232.558594 L 421.769531 232.546875 C 421.558594 232.621094 421.347656 232.679688 421.128906 232.738281 C 421.125 232.746094 421.117188 232.757812 421.113281 232.769531 C 421.074219 232.78125 421.039062 232.789062 421.007812 232.800781 C 421 232.78125 420.992188 232.757812 420.992188 232.738281 C 415.347656 232.546875 410.472656 228.929688 406 225.46875 C 408.421875 226.125 410.59375 226.339844 412.648438 226.339844 C 414.585938 226.339844 416.425781 226.148438 418.269531 225.957031 C 420.113281 225.765625 421.976562 225.574219 423.960938 225.574219 C 429.101562 225.574219 435.078125 226.867188 443.855469 232.800781 C 445.882812 234.175781 450.652344 236.777344 452.65625 241.300781 C 451.292969 238.242188 450.515625 230.867188 453.269531 227.722656 C 454.339844 232.695312 453.703125 243.324219 467.996094 249.441406 C 471.339844 250.871094 475.410156 251.261719 479.484375 251.261719 C 481.636719 251.261719 483.792969 251.15625 485.839844 251.03125 C 480.746094 253.164062 475.050781 254.332031 469.160156 254.332031 C 458.554688 254.332031 447.3125 250.542969 437.789062 241.742188 C 437.355469 241.335938 436.882812 241.171875 436.445312 241.171875 C 435.300781 241.171875 434.351562 242.328125 434.761719 243.550781 C 436.136719 247.59375 436.148438 252.058594 435.046875 256.199219 " fill-opacity="1" fill-rule="nonzero"/><g clip-path="url(#c74fc03bf2)"><path fill="#a8a8a8" d="M 492.683594 247.6875 C 482.257812 247.632812 474.339844 241.070312 471.339844 233.410156 C 474.84375 234.246094 477.589844 235.894531 479.683594 237.972656 C 480.785156 239.058594 482.683594 238.320312 482.722656 236.746094 C 482.980469 226.484375 478.351562 217.976562 471.394531 212.875 C 477.089844 210.625 482.578125 204.4375 483.21875 196.277344 C 483.328125 194.8125 481.667969 193.839844 480.445312 194.699219 C 472.59375 200.226562 464.789062 196.5625 455.960938 192.898438 C 449.25 190.117188 441.949219 187.328125 433.589844 188.578125 C 434.957031 187.210938 436.507812 185.996094 438.226562 185.015625 C 439.695312 184.167969 439.359375 181.9375 437.695312 181.574219 C 416.851562 177.019531 378.003906 181.621094 370.347656 200.460938 C 370.289062 200.609375 370.445312 200.75 370.589844 200.683594 C 382.019531 195.078125 392.625 184 419.261719 183.476562 C 426.441406 183.351562 430.757812 183.847656 433.34375 184.269531 C 429.628906 187.265625 428.601562 189.726562 427.996094 189.941406 C 428.328125 190.339844 426.898438 190.9375 427.382812 192.210938 C 427.96875 193.757812 428.960938 193.027344 431.777344 192.289062 C 433.945312 191.726562 437.195312 191.164062 442.175781 191.640625 C 452.390625 192.914062 465.71875 203.933594 477.972656 199.449219 C 474.804688 204.082031 470.984375 207.875 466.304688 211.238281 C 465.519531 211.808594 465.613281 212.980469 466.453125 213.417969 C 472.707031 216.652344 477.503906 222.902344 478.953125 230.8125 C 478.308594 230.261719 477.628906 229.753906 476.890625 229.351562 C 472.316406 226.953125 470.03125 228.566406 467.476562 230.539062 C 465.527344 232.046875 472.347656 247.371094 486.675781 250.671875 C 472.328125 257.058594 452.898438 255.703125 437.789062 241.742188 C 436.222656 240.285156 434.191406 241.863281 434.761719 243.550781 C 436.136719 247.59375 436.148438 252.058594 435.046875 256.199219 C 431.238281 248.097656 422.820312 240.742188 408.460938 237.671875 C 400.109375 235.910156 394.316406 238.203125 395.941406 238.59375 C 406.535156 241.140625 428.804688 243.796875 433.269531 261.773438 C 433.695312 263.433594 435.9375 263.65625 436.679688 262.132812 C 438.65625 258.136719 439.601562 253.628906 439.414062 249.167969 C 452.984375 262.8125 482.722656 266.53125 494.113281 250.480469 C 494.929688 249.328125 494.125 247.691406 492.683594 247.6875 " fill-opacity="1" fill-rule="nonzero"/></g><path fill="#f8f8f8" d="M 423.214844 231.933594 C 414.628906 236.355469 402.574219 229 402.578125 219.328125 L 391.660156 197.097656 C 375.929688 189.070312 360.289062 192.289062 344.601562 195.515625 C 329.363281 198.644531 314.078125 201.773438 298.640625 194.582031 C 298.449219 198.582031 295.859375 208.960938 302.566406 213.5 C 278.871094 212.410156 252.921875 211.28125 242.730469 240.574219 C 244.621094 237.851562 251.386719 238.675781 254.648438 238.109375 C 254.089844 269.734375 220.578125 249.921875 207.800781 267.609375 C 215.730469 268.574219 217.5625 271.332031 222.191406 277.257812 C 204.230469 278.460938 176.535156 300.035156 168.566406 316.1875 C 173.023438 312.976562 177.808594 314.828125 183.238281 315.683594 C 171.023438 327.566406 165.417969 345.875 165.546875 362.921875 C 168.597656 356.222656 176.226562 351.882812 177.910156 351.667969 C 173.6875 365.035156 174.152344 389.492188 181.726562 401.285156 C 181.144531 396.3125 187.910156 382.394531 191.515625 378.921875 C 200.546875 383.5 206.074219 399.082031 199.355469 405.574219 C 222.84375 389.441406 227.484375 382.632812 231.265625 356.730469 C 235.78125 363.289062 237.722656 364.242188 245.417969 366.292969 C 238.703125 344.65625 249.226562 328.476562 261.511719 318.535156 C 264.519531 324.980469 265.289062 328.878906 261.214844 334.71875 C 277.425781 323.570312 290.902344 310.609375 296.753906 291.824219 C 314.417969 295.96875 329.320312 288.148438 344.207031 277.765625 C 340.777344 278.144531 337.15625 278.5 334.011719 277.074219 C 315.515625 268.660156 356.554688 245.46875 385.96875 263.117188 C 385.277344 257.59375 384.253906 252.054688 378.058594 248.460938 C 395.402344 249.042969 415.460938 248.53125 423.214844 231.933594 " fill-opacity="1" fill-rule="nonzero"/><path fill="#dbdbdb" d="M 199.355469 405.574219 C 200.769531 404.210938 204.203125 400.859375 204.617188 398.875 C 217.179688 385.875 217.511719 370.355469 219.996094 360.648438 C 217.925781 362.179688 215.351562 362.992188 212.777344 362.992188 C 211.609375 362.992188 210.4375 362.824219 209.316406 362.476562 C 220.015625 358.675781 225.992188 347.367188 229.570312 336.585938 C 230.507812 342.5 230.859375 346.433594 231.550781 352.378906 C 231.738281 353.960938 230.183594 357.683594 230.882812 359.175781 C 227.152344 383.035156 222.070312 389.976562 199.355469 405.574219 " fill-opacity="1" fill-rule="nonzero"/><path fill="#e1e1e1" d="M 245.417969 366.292969 C 245.320312 366.269531 245.21875 366.242188 245.121094 366.210938 C 245.21875 366.242188 245.320312 366.269531 245.417969 366.292969 " fill-opacity="1" fill-rule="nonzero"/><path fill="#c1c1c1" d="M 421.113281 232.769531 C 421.117188 232.757812 421.125 232.746094 421.128906 232.738281 C 421.347656 232.679688 421.558594 232.621094 421.769531 232.546875 L 421.773438 232.558594 C 421.558594 232.632812 421.335938 232.707031 421.113281 232.769531 " fill-opacity="1" fill-rule="nonzero"/><path fill="#dbdbdb" d="M 245.417969 366.292969 C 245.320312 366.269531 245.21875 366.242188 245.121094 366.210938 C 244.5625 366.0625 244.070312 365.921875 243.5625 365.777344 C 242.621094 363.789062 241.839844 361.722656 241.214844 359.640625 C 233.980469 335.402344 245.753906 306.875 267.976562 294.816406 C 267.039062 300.183594 266.5 305.628906 266.359375 311.082031 C 271.886719 307 276.722656 301.980469 280.609375 296.3125 C 281.671875 294.765625 282.695312 293.082031 282.84375 291.210938 C 283.074219 288.28125 281.058594 285.535156 278.527344 284.042969 C 276.003906 282.542969 273.027344 282.042969 270.128906 281.570312 C 275.59375 280.035156 281.277344 279.253906 286.960938 279.253906 C 290.5 279.253906 294.046875 279.558594 297.539062 280.164062 C 304.160156 281.3125 310.898438 283.535156 317.496094 283.535156 C 319.636719 283.535156 321.773438 283.300781 323.878906 282.71875 C 319.742188 281.175781 316.578125 277.277344 315.917969 272.910156 C 315.253906 268.542969 317.125 263.878906 320.621094 261.183594 C 320.257812 261.167969 319.890625 261.152344 319.527344 261.152344 C 315.03125 261.152344 310.550781 262.546875 306.855469 265.105469 C 312.414062 255.554688 322.390625 249.171875 332.984375 246.027344 C 341.003906 243.636719 349.398438 242.9375 357.800781 242.9375 C 360.480469 242.9375 363.167969 243.011719 365.828125 243.117188 C 364.019531 240.558594 362.210938 237.992188 360.398438 235.429688 C 371.394531 239.125 382.992188 241.015625 394.585938 241.015625 C 397.445312 241.015625 400.308594 240.898438 403.152344 240.667969 C 409.914062 240.125 417.410156 238.351562 421.113281 232.769531 C 421.335938 232.707031 421.558594 232.632812 421.773438 232.558594 L 422.375 233.484375 C 415.261719 246.410156 400.007812 248.597656 385.214844 248.597656 C 382.808594 248.597656 380.410156 248.542969 378.058594 248.460938 C 384.253906 252.054688 385.277344 257.59375 385.96875 263.117188 C 378.226562 258.472656 369.679688 256.65625 361.617188 256.65625 C 344.378906 256.65625 329.394531 264.96875 329.386719 271.652344 C 329.386719 273.710938 330.804688 275.613281 334.011719 277.074219 C 335.738281 277.855469 337.605469 278.101562 339.515625 278.101562 C 341.074219 278.101562 342.660156 277.933594 344.207031 277.765625 C 332.105469 286.210938 319.996094 292.957031 306.398438 292.957031 C 303.265625 292.957031 300.058594 292.597656 296.753906 291.824219 C 290.902344 310.609375 277.425781 323.570312 261.214844 334.71875 C 263.183594 331.890625 264.023438 329.515625 264.019531 327.089844 C 264.019531 324.503906 263.066406 321.855469 261.511719 318.535156 C 251.875 326.328125 243.324219 337.964844 243.324219 353.054688 C 243.324219 357.210938 243.96875 361.621094 245.417969 366.292969 " fill-opacity="1" fill-rule="nonzero"/><path fill="#ffffff" d="M 387.953125 197.144531 C 386.738281 195.863281 385.300781 194.804688 383.742188 193.972656 C 355.417969 185.734375 327.292969 207.929688 298.640625 194.582031 C 298.492188 197.652344 296.949219 204.472656 299.265625 209.535156 C 310.371094 215.140625 323.5 216.808594 335.550781 213.648438 C 329.738281 213.300781 324.09375 210.742188 319.996094 206.605469 C 335.199219 206.183594 350.359375 204.015625 365.066406 200.15625 C 372.574219 198.1875 380.3125 195.757812 387.953125 197.144531 " fill-opacity="1" fill-rule="nonzero"/><path fill="#ffffff" d="M 242.730469 240.574219 C 244.621094 237.851562 251.386719 238.675781 254.648438 238.109375 C 254.089844 269.734375 220.578125 249.921875 207.800781 267.609375 C 215.730469 268.574219 217.5625 271.332031 222.191406 277.257812 C 204.230469 278.460938 176.535156 300.035156 168.566406 316.1875 C 173.023438 312.976562 177.808594 314.828125 183.238281 315.683594 C 171.023438 327.566406 165.417969 345.875 165.546875 362.921875 C 167.546875 358.53125 171.488281 355.1875 174.460938 353.320312 C 178.15625 342.996094 183.078125 333.171875 190.320312 325.019531 C 185.242188 326.648438 180.972656 330.617188 178.972656 335.5625 C 180.039062 328.371094 181.746094 321.273438 184.082031 314.382812 C 183.851562 314.539062 185.632812 314.617188 185.410156 314.785156 C 184.960938 313.113281 180.285156 311.417969 179.265625 310.023438 C 189.050781 299.136719 200.953125 296.308594 218.3125 295.382812 C 214.449219 293.019531 205.8125 292.789062 202.410156 293.234375 C 207.378906 284.53125 216.492188 286.890625 222.921875 279.667969 L 223.023438 279.898438 C 226.839844 277.257812 228.613281 272 227.167969 267.589844 C 233.996094 268.363281 240.9375 269.132812 247.714844 268.003906 C 254.492188 266.871094 261.222656 263.5625 264.933594 257.777344 C 260.855469 260.28125 255.953125 261.414062 251.191406 260.941406 C 255.707031 258.667969 258.960938 254.074219 259.617188 249.0625 C 260.238281 244.355469 258.515625 239.429688 255.171875 236.058594 C 266.445312 232.207031 278.9375 232.5 290.957031 233.054688 C 284.050781 228.03125 275.160156 225.828125 266.710938 227.039062 C 278.027344 222.222656 289.714844 218.28125 301.636719 215.257812 C 300.398438 214.550781 299.128906 213.902344 297.84375 213.296875 C 275.507812 212.398438 252.246094 213.222656 242.730469 240.574219 " fill-opacity="1" fill-rule="nonzero"/><path fill="#a8a8a8" d="M 423.140625 230.800781 C 421.042969 231.105469 419.328125 231.167969 416.582031 230.613281 C 405.46875 228.007812 403.203125 219.253906 402.722656 219.082031 C 401.574219 218.671875 401.085938 223.777344 402.777344 227.214844 C 405.761719 233.726562 413.746094 237.058594 419.855469 235.144531 C 410.785156 247.246094 393.675781 247.074219 378.128906 246.492188 C 376.003906 246.417969 375.402344 249.082031 377.074219 250.171875 C 380.863281 252.425781 382.40625 255.4375 383.226562 259.234375 C 351.082031 243.523438 311.175781 269.289062 333.261719 279.316406 C 334.257812 279.738281 335.253906 280.015625 336.238281 280.195312 C 305.128906 299.75 296.457031 284.6875 294.5 291.117188 C 289.660156 306.796875 279.097656 318.328125 266.296875 328.097656 C 266.550781 324.816406 265.480469 321.59375 263.652344 317.53125 C 263.003906 316.113281 261.222656 315.722656 260.050781 316.675781 C 245.238281 328.722656 238.195312 344.632812 242.113281 362.875 C 240.757812 362.421875 239.542969 361.828125 238.460938 361.238281 C 229.941406 356.636719 233.605469 354.695312 231.621094 354.398438 C 230.328125 354.203125 229.125 355.09375 228.925781 356.386719 C 225.289062 379.710938 221.851562 386.132812 204.617188 398.875 C 205.21875 390.625 199.964844 380.597656 192.578125 376.8125 C 191.367188 376.179688 190.34375 376.730469 189.875 377.21875 C 186.957031 380.253906 182.960938 387.410156 180.835938 393.765625 C 176.589844 381.582031 176.792969 363.714844 180.160156 352.378906 C 180.773438 350.328125 179.140625 349.011719 177.613281 349.328125 C 175.09375 349.839844 171.433594 352.109375 168.300781 355.230469 C 169.652344 341.199219 174.9375 327.058594 184.886719 317.375 C 186.285156 316.011719 185.527344 313.640625 183.601562 313.347656 C 180.535156 312.878906 177.210938 311.925781 173.871094 312.046875 C 178.910156 304.855469 186.347656 298.023438 192.894531 293.125 C 212.890625 278.257812 221.757812 280.667969 223.695312 279.097656 C 224.707031 278.289062 224.859375 276.8125 224.050781 275.804688 C 219.894531 270.65625 217.808594 267.703125 212.382812 266.148438 C 224.394531 256.304688 250.109375 267.195312 255.933594 246.367188 C 256.832031 242.984375 257.085938 238.414062 256.980469 237.714844 C 256.832031 236.734375 255.910156 235.527344 254.246094 235.78125 C 252.296875 236.078125 249.621094 235.960938 247.070312 236.277344 C 257.289062 214.832031 277.183594 214.960938 302.453125 215.824219 C 304.847656 215.914062 305.828125 212.867188 303.863281 211.566406 C 299.804688 208.882812 300.027344 203.242188 300.535156 197.863281 C 315.160156 203.980469 329.671875 201.542969 345.765625 198.070312 C 363.328125 194.242188 372.65625 192.753906 391.546875 197.320312 C 391.808594 197.382812 391.980469 197.046875 391.777344 196.875 C 368.507812 176.925781 328.933594 205.613281 299.570312 192.582031 C 298.132812 191.957031 296.542969 192.945312 296.441406 194.476562 C 296.246094 198.460938 294.722656 205.472656 297.378906 210.910156 C 270.628906 209.839844 249.898438 213.238281 240.503906 239.796875 C 239.492188 242.621094 243.21875 244.324219 244.675781 241.921875 C 245.230469 241.003906 249.019531 240.84375 252.097656 240.675781 C 249.75 265.832031 218.867188 247.960938 205.863281 266.265625 C 204.859375 267.714844 205.746094 269.734375 207.515625 269.957031 C 213.117188 270.65625 215.085938 272.210938 217.824219 275.550781 C 199 279.503906 174.628906 299.046875 166.449219 315.140625 C 165.335938 317.375 167.96875 319.566406 169.949219 318.105469 C 172.4375 316.285156 175.277344 316.605469 178.65625 317.238281 C 168.128906 329.421875 163.082031 346.5 163.183594 362.941406 C 163.199219 365.464844 166.625 366.1875 167.683594 363.933594 C 169.105469 360.898438 171.726562 358.140625 174.363281 356.214844 C 171.464844 370.742188 172.652344 391.1875 179.742188 402.5625 C 181.039062 404.644531 184.246094 403.585938 184.082031 401.15625 C 183.800781 396.949219 188.640625 386.582031 192.023438 382.003906 C 199 386.984375 202.613281 399.210938 197.71875 403.867188 C 195.617188 405.882812 198.316406 409.175781 200.6875 407.523438 C 222.996094 392.074219 228.773438 385.019531 232.726562 362.441406 C 235.867188 365.910156 238.496094 366.78125 244.8125 368.578125 C 246.527344 369.066406 248.253906 367.488281 247.671875 365.59375 C 242.472656 348.683594 248.019531 333.796875 260.597656 322.429688 C 264.070312 331.578125 257.09375 332.886719 259.269531 336.058594 C 260.007812 337.128906 261.480469 337.402344 262.550781 336.664062 C 278.558594 325.632812 291.980469 312.722656 298.257812 294.535156 C 315.707031 297.929688 330.839844 289.914062 345.554688 279.699219 C 347.578125 278.292969 346.367188 275.136719 343.945312 275.414062 C 340.632812 275.804688 337.5 276.019531 335.132812 274.980469 C 333.835938 274.421875 332.648438 273.609375 332.140625 272.832031 C 328.023438 266.460938 359.871094 250.121094 384.886719 264.933594 C 386.441406 265.855469 388.304688 264.585938 388.070312 262.851562 C 387.289062 257.128906 386.0625 253.777344 384.226562 251.3125 C 394.730469 252.109375 408.347656 249.738281 416.386719 243.414062 C 421.886719 239.226562 423.230469 234.472656 424.304688 232.441406 C 424.726562 231.636719 424.0625 230.664062 423.140625 230.800781 " fill-opacity="1" fill-rule="nonzero"/><path fill="#a8a8a8" d="M 229.570312 336.589844 C 230.667969 342.363281 228.925781 356.386719 228.925781 356.386719 L 230.691406 360.378906 L 232.957031 358.964844 C 232.980469 348.621094 229.570312 336.589844 229.570312 336.589844 " fill-opacity="1" fill-rule="nonzero"/></svg>