<?xml version="1.0" encoding="UTF-8" standalone="no"?>
<!DOCTYPE svg PUBLIC "-//W3C//DTD SVG 1.1//EN" "http://www.w3.org/Graphics/SVG/1.1/DTD/svg11.dtd">
<svg width="100%" height="100%" viewBox="0 0 800 800" version="1.1" xmlns="http://www.w3.org/2000/svg" xmlns:xlink="http://www.w3.org/1999/xlink" xml:space="preserve" xmlns:serif="http://www.serif.com/" style="fill-rule:evenodd;clip-rule:evenodd;stroke-linejoin:round;stroke-miterlimit:2;">
    <path d="M515.046,82L553.5,82C689.547,82 800,192.453 800,328.5L800,710.065C773.1,621.476 721.461,499.968 623.747,386.882C638.261,375.538 647.599,357.869 647.599,338.037C647.599,303.839 619.834,276.075 585.636,276.075C565.72,276.075 547.986,285.491 536.648,300.111C494.793,264.24 446.996,230.589 392.424,200.768C351.021,178.142 305.717,157.721 256.151,140.209C246.681,136.864 236.897,135.309 226.848,135.388C158.503,135.924 77.885,212.005 0.423,313.961C7.958,184.67 115.333,82 246.5,82L284.954,82C315.562,71.321 355.865,64.832 400,64.832C444.135,64.832 484.438,71.321 515.046,82Z" style="fill:rgb(217,217,217);"/>
    <path d="M5.38,379.917C1.855,363.331 0,346.13 0,328.5C0,323.62 0.142,318.772 0.423,313.961C77.885,212.005 158.503,135.924 226.848,135.388C236.897,135.309 246.681,136.864 256.151,140.209C305.717,157.721 351.021,178.142 392.424,200.768C446.996,230.589 494.793,264.24 536.648,300.111C528.516,310.595 523.674,323.755 523.674,338.037C523.674,372.235 551.438,400 585.636,400C600.002,400 613.233,395.1 623.747,386.882C721.461,499.968 773.1,621.476 800,710.065L800,719.765C800,727.49 793.729,733.761 786.004,733.761C674.41,733.761 624.082,694.013 571.057,575.129L573,574.761C573,574.761 558.015,483.383 439.649,385.64C453.282,374.27 461.963,357.16 461.963,338.037C461.963,303.839 434.198,276.075 400,276.075C372.592,276.075 349.317,293.908 341.154,318.595C298.182,294.315 247.338,270.869 187.201,249.622C134.79,231.105 68.027,294.352 5.38,379.917Z" style="fill:rgb(189,189,189);"/>
    <g transform="matrix(-1.09997,0,0,1.31018,691.779,-203.291)">
        <path d="M229.215,449.505C121.607,524.107 107.983,593.852 107.983,593.852L109.749,594.133L109.802,594.035L404.809,594.035C512.464,594.035 602.49,530.165 624.015,445.136C567.061,379.829 506.367,331.555 458.719,345.688C404.048,361.905 357.825,379.801 318.758,398.332C320.596,403 321.591,407.989 321.591,413.172C321.591,439.274 296.35,460.465 265.26,460.465C251.554,460.465 238.985,456.347 229.215,449.505ZM434.025,365.878C465.115,365.878 490.356,387.07 490.356,413.172C490.356,439.274 465.115,460.465 434.025,460.465C402.935,460.465 377.694,439.274 377.694,413.172C377.694,387.07 402.935,365.878 434.025,365.878Z" style="fill:rgb(151,151,151);"/>
    </g>
</svg>
