<?xml version="1.0" encoding="UTF-8" standalone="no"?>
<!DOCTYPE svg PUBLIC "-//W3C//DTD SVG 1.1//EN" "http://www.w3.org/Graphics/SVG/1.1/DTD/svg11.dtd">
<svg width="100%" height="100%" viewBox="0 0 3400 800" version="1.1" xmlns="http://www.w3.org/2000/svg" xmlns:xlink="http://www.w3.org/1999/xlink" xml:space="preserve" xmlns:serif="http://www.serif.com/" style="fill-rule:evenodd;clip-rule:evenodd;stroke-linejoin:round;stroke-miterlimit:2;">
    <g transform="matrix(1,0,0,1,50.6896,0.703598)">
        <path d="M800,328.5L800,719.765C800,727.49 793.729,733.761 786.004,733.761C674.37,733.761 624.045,693.984 571,575L246.5,575C110.453,575 0,464.547 0,328.5C0,192.453 110.453,82 246.5,82L553.5,82C689.547,82 800,192.453 800,328.5ZM585.636,276.075C551.438,276.075 523.674,303.839 523.674,338.037C523.674,372.235 551.438,400 585.636,400C619.834,400 647.599,372.235 647.599,338.037C647.599,303.839 619.834,276.075 585.636,276.075ZM214.364,276.075C180.166,276.075 152.401,303.839 152.401,338.037C152.401,372.235 180.166,400 214.364,400C248.562,400 276.326,372.235 276.326,338.037C276.326,303.839 248.562,276.075 214.364,276.075ZM400,276.075C365.802,276.075 338.037,303.839 338.037,338.037C338.037,372.235 365.802,400 400,400C434.198,400 461.963,372.235 461.963,338.037C461.963,303.839 434.198,276.075 400,276.075Z" style="fill:rgb(255,203,226);"/>
    </g>
    <path d="M565.735,82.704L604.19,82.704C740.237,82.704 850.69,193.157 850.69,329.204L850.69,710.768C823.79,622.179 772.151,500.672 674.437,387.586C688.951,376.241 698.288,358.573 698.288,338.741C698.288,304.543 670.524,276.778 636.326,276.778C616.41,276.778 598.676,286.195 587.337,300.814C545.483,264.944 497.685,231.293 443.114,201.471C401.71,178.846 356.407,158.425 306.841,140.913C297.371,137.567 287.587,136.013 277.538,136.091C209.193,136.627 128.574,212.708 51.112,314.665C58.647,185.374 166.023,82.704 297.19,82.704L335.644,82.704C366.252,72.025 406.555,65.535 450.69,65.535C494.825,65.535 535.128,72.025 565.735,82.704Z" style="fill:rgb(255,203,226);"/>
    <g transform="matrix(1,0,0,1,50.6896,0.703598)">
        <path d="M5.38,379.917C1.855,363.331 0,346.13 0,328.5C0,323.62 0.142,318.772 0.423,313.961C77.885,212.005 158.503,135.924 226.848,135.388C236.897,135.309 246.681,136.864 256.151,140.209C305.717,157.721 351.021,178.142 392.424,200.768C446.996,230.589 494.793,264.24 536.648,300.111C528.516,310.595 523.674,323.755 523.674,338.037C523.674,372.235 551.438,400 585.636,400C600.002,400 613.233,395.1 623.747,386.882C721.461,499.968 773.1,621.476 800,710.065L800,719.765C800,727.49 793.729,733.761 786.004,733.761C674.41,733.761 624.082,694.013 571.057,575.129L573,574.761C573,574.761 558.015,483.383 439.649,385.64C453.282,374.27 461.963,357.16 461.963,338.037C461.963,303.839 434.198,276.075 400,276.075C372.592,276.075 349.317,293.908 341.154,318.595C298.182,294.315 247.338,270.869 187.201,249.622C134.79,231.105 68.027,294.352 5.38,379.917Z" style="fill:rgb(255,160,202);"/>
    </g>
    <g transform="matrix(-1.09997,0,0,1.31018,742.468,-202.587)">
        <path d="M229.215,449.505C121.607,524.107 107.983,593.852 107.983,593.852L109.749,594.133L109.802,594.035L404.809,594.035C512.464,594.035 602.49,530.165 624.015,445.136C567.061,379.829 506.367,331.555 458.719,345.688C404.048,361.905 357.825,379.801 318.758,398.332C320.596,403 321.591,407.989 321.591,413.172C321.591,439.274 296.35,460.465 265.26,460.465C251.554,460.465 238.985,456.347 229.215,449.505ZM434.025,365.878C465.115,365.878 490.356,387.07 490.356,413.172C490.356,439.274 465.115,460.465 434.025,460.465C402.935,460.465 377.694,439.274 377.694,413.172C377.694,387.07 402.935,365.878 434.025,365.878Z" style="fill:rgb(255,84,160);"/>
    </g>
    <g transform="matrix(2.87575,0,0,2.87575,-2138.96,-302.403)">
        <path d="M1132.11,267.843C1142.24,267.843 1150.93,264.222 1158.17,256.98C1165.41,249.031 1169.03,240.346 1169.03,230.925C1169.03,221.504 1165.41,212.819 1158.17,204.87C1157.05,203.751 1155.84,202.691 1154.55,201.69C1160.43,194.565 1163.23,186.661 1162.94,177.976C1162.64,169.291 1159.32,161.592 1152.96,154.88C1146.25,148.167 1138.21,144.811 1128.85,144.811L1073.73,144.811L1073.73,267.843L1132.11,267.843ZM1092.99,248.324L1092.99,213.614L1132.11,213.614C1136.88,213.614 1140.98,215.292 1144.39,218.648C1147.81,222.416 1149.51,226.509 1149.51,230.925C1149.51,235.341 1147.81,239.433 1144.39,243.201C1140.98,246.616 1136.88,248.324 1132.11,248.324L1092.99,248.324ZM1092.99,193.829L1092.99,164.507L1128.85,164.507C1132.85,164.507 1136.26,165.949 1139.09,168.834C1141.98,172.014 1143.42,175.473 1143.42,179.212C1143.42,182.951 1141.98,186.381 1139.09,189.502C1136.26,192.387 1132.85,193.829 1128.85,193.829L1092.99,193.829Z" style="fill-rule:nonzero;"/>
        <path d="M1202.42,184.379L1202.42,179.963L1183.16,179.963L1183.16,267.843L1202.42,267.843L1202.42,229.865L1202.68,229.865L1202.68,221.827C1202.68,214.526 1205.3,208.285 1210.54,203.103C1215.31,198.511 1220.76,195.92 1226.88,195.331L1226.88,175.812C1218.11,176.224 1209.95,179.08 1202.42,184.379Z" style="fill-rule:nonzero;"/>
        <path d="M1306.64,179.963L1306.64,184.732C1298.57,178.726 1289.38,175.723 1279.08,175.723C1266.13,175.723 1255.07,180.301 1245.92,189.458C1236.76,198.614 1232.18,209.639 1232.18,222.534C1232.18,235.488 1236.76,246.543 1245.92,255.699C1255.07,264.855 1266.13,269.433 1279.08,269.433C1289.38,269.433 1298.57,266.43 1306.64,260.424L1306.64,267.843L1325.98,267.843L1325.98,179.963L1306.64,179.963ZM1306.64,225.007C1305.87,232.249 1302.9,238.27 1297.72,243.069C1292.54,247.868 1286.32,250.267 1279.08,250.267C1271.43,250.267 1264.89,247.559 1259.47,242.141C1254.06,236.724 1251.35,230.189 1251.35,222.534C1251.35,214.938 1254.06,208.432 1259.47,203.015C1264.89,197.598 1271.43,194.889 1279.08,194.889C1286.32,194.889 1292.54,197.289 1297.72,202.088C1302.9,206.886 1305.87,212.907 1306.64,220.149L1306.64,225.007Z" style="fill-rule:nonzero;"/>
        <path d="M1352.21,144.811C1348.86,144.811 1346,145.988 1343.64,148.344C1341.29,150.699 1340.11,153.555 1340.11,156.911C1340.11,160.208 1341.29,163.035 1343.64,165.39C1346,167.745 1348.86,168.923 1352.21,168.923C1355.51,168.923 1358.34,167.745 1360.69,165.39C1363.05,163.035 1364.22,160.208 1364.22,156.911C1364.22,153.555 1363.05,150.699 1360.69,148.344C1358.34,145.988 1355.51,144.811 1352.21,144.811ZM1361.84,179.963L1342.5,179.963L1342.5,267.843L1361.84,267.843L1361.84,179.963Z" style="fill-rule:nonzero;"/>
        <path d="M1456.34,193.388C1448.04,185.203 1438.5,180.67 1427.73,179.786C1416.95,178.903 1406.91,181.612 1397.61,187.912L1397.61,179.963L1378.35,179.963L1378.35,267.843L1397.61,267.843L1397.61,221.386C1398.73,215.91 1401.17,211.258 1404.94,207.431C1410.71,202.132 1416.98,199.482 1423.75,199.482C1430.52,199.482 1436.79,202.132 1442.56,207.431C1447.81,212.73 1450.42,219.089 1450.42,226.509L1450.42,267.843L1469.94,267.843L1469.94,226.509C1469.94,213.614 1465.41,202.573 1456.34,193.388Z" style="fill-rule:nonzero;"/>
        <path d="M1536.8,208.138L1556.5,208.049C1555.5,199.04 1551.88,191.68 1545.64,185.969C1538.87,180.257 1530.62,177.048 1520.91,176.342C1511.19,175.635 1502.74,177.961 1495.56,183.319C1487.9,190.09 1484.97,197.598 1486.77,205.841C1488.57,214.085 1493.76,220.709 1502.36,225.714C1508.25,228.599 1513.96,230.542 1519.49,231.543C1524.03,232.485 1528.3,233.839 1532.3,235.606C1534.77,236.842 1536.41,238.417 1537.2,240.331C1538,242.245 1537.3,244.173 1535.13,246.116C1532.36,248.295 1528.74,249.619 1524.26,250.09C1519.61,250.503 1515.28,249.796 1511.28,247.971C1506.98,245.91 1504.45,242.524 1503.68,237.814L1484.08,237.814C1485.25,250.473 1491.5,259.718 1502.8,265.547C1509.81,268.844 1517.45,270.154 1525.72,269.477C1533.99,268.8 1541.22,266.047 1547.4,261.219C1557.06,252.799 1559.36,242.671 1554.29,230.836C1551.76,225.596 1547.26,221.327 1540.78,218.03C1536.42,216.087 1531.86,214.644 1527.09,213.702C1521.73,212.701 1516.61,210.993 1511.72,208.579C1509.6,207.519 1507.89,206.047 1506.6,204.163C1505.3,202.279 1505.68,200.395 1507.75,198.511C1511.04,196.155 1515.24,195.257 1520.33,195.817C1525.42,196.376 1529.5,197.922 1532.56,200.454C1534.68,202.456 1536.1,205.017 1536.8,208.138Z" style="fill-rule:nonzero;"/>
        <path d="M1618.41,179.963L1595.27,179.963L1595.27,159.031L1576.02,159.031L1576.02,223.241C1576.02,235.959 1580.52,246.852 1589.53,255.92C1597.95,263.986 1607.58,268.432 1618.41,269.256L1618.41,249.649C1612.76,248.883 1607.73,246.352 1603.31,242.053C1598.13,236.872 1595.54,230.601 1595.54,223.241L1595.54,199.305L1618.41,199.305L1618.41,179.963Z" style="fill-rule:nonzero;"/>
        <path d="M1670.61,269.433C1683.57,269.433 1694.61,264.855 1703.73,255.699C1712.86,246.543 1717.42,235.488 1717.42,222.534C1717.42,209.639 1712.86,198.614 1703.73,189.458C1694.61,180.301 1683.57,175.723 1670.61,175.723C1657.66,175.723 1646.6,180.301 1637.45,189.458C1628.29,198.614 1623.71,209.639 1623.71,222.534C1623.71,235.488 1628.29,246.543 1637.45,255.699C1646.6,264.855 1657.66,269.433 1670.61,269.433ZM1670.61,250.267C1662.96,250.267 1656.42,247.559 1651,242.141C1645.59,236.724 1642.88,230.189 1642.88,222.534C1642.88,214.938 1645.59,208.432 1651,203.015C1656.42,197.598 1662.96,194.889 1670.61,194.889C1678.27,194.889 1684.8,197.598 1690.22,203.015C1695.64,208.432 1698.34,214.938 1698.34,222.534C1698.34,230.189 1695.64,236.724 1690.22,242.141C1684.8,247.559 1678.27,250.267 1670.61,250.267Z" style="fill-rule:nonzero;"/>
        <path d="M1750.81,184.379L1750.81,179.963L1731.55,179.963L1731.55,267.843L1750.81,267.843L1750.81,229.865L1751.07,229.865L1751.07,221.827C1751.07,214.526 1753.69,208.285 1758.93,203.103C1763.7,198.511 1769.15,195.92 1775.27,195.331L1775.27,175.812C1766.5,176.224 1758.34,179.08 1750.81,184.379Z" style="fill-rule:nonzero;"/>
        <path d="M1867.83,179.963L1888.77,179.963L1840.28,300.346L1819.35,300.346L1832.51,267.402L1789.4,179.963L1810.95,179.963L1842.13,243.555L1867.83,179.963Z" style="fill-rule:nonzero;"/>
    </g>
</svg>
