<?xml version="1.0" standalone="no"?>
<!DOCTYPE svg PUBLIC "-//W3C//DTD SVG 20010904//EN"
 "http://www.w3.org/TR/2001/REC-SVG-20010904/DTD/svg10.dtd">
<svg version="1.0" xmlns="http://www.w3.org/2000/svg"
 width="800.000000pt" height="800.000000pt" viewBox="0 0 800.000000 800.000000"
 preserveAspectRatio="xMidYMid meet">
<metadata>
Created by potrace 1.14, written by Peter Selinger 2001-2017
</metadata>
<g transform="translate(0.000000,800.000000) scale(0.100000,-0.100000)"
fill="#000000" stroke="none">
<path d="M3650 7339 c-41 -4 -102 -10 -135 -13 -166 -16 -430 -70 -590 -120
-77 -23 -94 -25 -400 -29 -176 -3 -336 -8 -355 -11 -19 -4 -66 -11 -105 -17
-500 -77 -997 -337 -1361 -711 -387 -398 -615 -871 -688 -1428 -26 -200 -14
-555 24 -749 95 -477 312 -900 635 -1240 62 -65 208 -200 261 -241 226 -175
483 -315 733 -400 79 -26 275 -78 326 -85 22 -4 48 -9 58 -11 10 -3 71 -12
135 -19 93 -11 469 -14 1817 -14 1605 -1 1700 -2 1709 -19 6 -9 34 -69 63
-132 144 -312 342 -636 500 -817 329 -377 675 -546 1243 -608 119 -12 352 -16
384 -5 18 6 46 24 62 41 l29 30 0 2082 c0 1843 -3 2199 -20 2249 -2 7 -6 31
-9 54 -7 54 -33 173 -58 259 -64 225 -128 369 -282 641 -88 155 -380 481 -551
616 -351 276 -775 459 -1190 514 -22 3 -51 8 -65 11 -14 3 -169 7 -345 10
-299 4 -325 6 -395 28 -193 59 -422 104 -672 129 -144 15 -631 18 -758 5z
m-1342 -2125 c163 -46 314 -171 385 -317 89 -182 88 -375 -1 -557 -48 -100
-168 -221 -263 -267 -106 -51 -173 -67 -284 -67 -551 1 -824 662 -434 1053 85
84 216 151 332 169 74 12 198 5 265 -14z m1837 5 c384 -94 579 -515 406 -874
-70 -143 -200 -255 -363 -312 -98 -35 -259 -37 -360 -6 -342 106 -525 466
-408 800 59 167 206 314 373 373 109 38 244 46 352 19z m1909 -17 c168 -58
293 -173 366 -336 39 -87 51 -147 51 -245 -1 -283 -179 -516 -455 -596 -83
-24 -242 -25 -321 -1 -113 33 -185 76 -270 161 -134 134 -193 286 -181 470 11
169 66 288 187 407 165 161 406 215 623 140z"/>
</g>
</svg>
